<svg width="144" height="144" viewBox="0 0 144 144" fill="none" xmlns="http://www.w3.org/2000/svg">
<path d="M143.073 102.9C143.031 102.708 142.988 102.589 142.988 102.589C140.665 96.4564 135.777 89.7767 128.963 83.1414C136.372 91.4171 139.673 99.3234 137.208 105.235C131.782 118.254 100.473 116.614 67.2937 101.555C34.1002 86.496 11.6028 63.7378 17.0288 50.7183C19.4939 44.7923 27.3425 41.9106 38.2795 41.9402C30.3884 41.3638 23.4182 41.8662 17.8931 43.477C17.8647 43.477 17.8647 43.477 17.8647 43.477C9.43527 46.0189 5.31265 53.3931 4.42012 55.2108C4.29262 55.4916 4.22182 55.6246 4.22182 55.6246C4.15097 55.7872 4.06596 55.9497 3.99513 56.1419C-6.82854 82.1069 15.3713 117.19 53.5233 134.495C91.7178 151.8 131.428 144.825 142.252 118.86C142.379 118.564 142.493 118.254 142.606 117.944C142.719 117.663 142.833 117.367 142.918 117.057C142.989 116.865 143.031 116.688 143.073 116.525C144.944 110.215 143.47 104.304 143.073 102.9Z" fill="white"/>
<path d="M82.6226 61.0629C87.2694 65.3633 91.7461 69.915 96.1379 74.7031C95.6421 76.8311 93.9845 89.0969 101.805 97.6386C109.88 106.476 121.681 108.929 126.271 105.944C121.37 105.796 116.964 103.89 113.705 101.88C113.153 101.555 112.614 101.2 112.076 100.845C109.923 99.3972 108.477 98.0672 107.939 97.5796C107.897 97.5352 107.854 97.4909 107.812 97.4318C107.741 97.3579 107.727 97.3431 107.727 97.3431C105.913 95.6141 104.284 93.6633 102.938 91.5058C101.04 88.491 99.7364 85.166 99.1414 81.7375C100.388 84.9739 102.074 87.959 104.128 90.6043C106.168 93.2644 108.577 95.5549 111.198 97.5056C113.833 99.4711 116.694 101.052 119.712 102.22C121.228 102.752 122.772 103.195 124.345 103.432C125.846 103.639 127.546 103.668 128.566 103.033C128.637 102.959 128.722 102.885 128.793 102.826C131.386 97.0919 128.666 86.9837 121.214 78.841C113.493 70.4175 101.819 70.9347 99.5947 71.3189C99.1839 70.5061 98.7872 69.6933 98.3622 68.8953C95.8546 64.2402 92.922 59.8364 89.6919 55.6542C89.4511 55.3439 89.2244 55.0187 88.9836 54.7232C81.9425 45.812 73.3856 38.1274 63.8653 32.024C54.3167 25.9503 43.7197 21.6646 32.811 19.4036C21.8882 17.2903 10.682 17.0982 3.05176e-05 19.4627C10.6537 21.9602 20.7973 24.6202 30.4876 28.2409C40.1637 31.9354 49.344 36.4723 58.0426 41.9845C60.0402 43.2554 62.0094 44.5854 63.9645 45.9598C70.4388 50.5114 76.6865 55.5359 82.6226 61.0629Z" fill="#FA8507"/>
<path d="M109.214 33.9748C110.121 35.1866 111.013 36.3688 111.948 37.5067C112.487 38.1274 112.713 38.5116 113.053 38.955C113.379 39.3983 113.748 39.8121 113.974 40.2998C115.136 42.1322 115.844 44.2307 116.142 46.6396C116.765 51.4572 115.731 57.0876 114.031 62.9102C118.763 59.2452 122.305 53.6148 123.155 46.6987C123.565 43.2702 123.013 39.4722 121.455 36.1767C121.143 35.3048 120.647 34.5659 120.165 33.7974C119.698 33.0585 119.16 32.2014 118.791 31.7137C117.955 30.5906 117.119 29.4674 116.34 28.3443C113.181 23.8961 110.135 19.6252 109.073 15.2066C108.534 13.0047 108.492 10.6254 109.087 8.03927C109.625 5.42355 110.843 2.83739 112.048 0C109.427 1.40392 107.075 3.39895 105.134 6.04422C103.222 8.6895 102.06 12.2806 102.074 15.8864C102.06 19.507 103.094 22.9207 104.426 25.8764C105.786 28.8911 107.458 31.5216 109.214 33.9748Z" fill="#FA8507"/>
</svg>
